/* XPM */
static char *background[] = {
/* columns rows colors chars-per-pixel */
"64 64 75 1 ",
"  c #BF9A62",
". c #C39D62",
"X c #C59F68",
"o c #C7A167",
"O c #CAA366",
"+ c #CCA56B",
"@ c #CEA86C",
"# c #D3AC6D",
"$ c #D8AF6F",
"% c #D8B06F",
"& c #CEA770",
"* c #CFA972",
"= c #D4AD73",
"- c #D4AF78",
"; c #D6B174",
": c #DBB474",
"> c #DFB877",
", c #D6B179",
"< c #DCB57A",
"1 c #DEB97C",
"2 c #E0B776",
"3 c #E1B977",
"4 c #E3BB7C",
"5 c #E8BF7C",
"6 c #E7C07F",
"7 c #E9C17E",
"8 c #DAB782",
"9 c #DEBA81",
"0 c #E3BD82",
"q c #E6C184",
"w c #EAC484",
"e c #EFC886",
"r c #E6C289",
"t c #EBC58B",
"y c #E5CC8F",
"u c #EEC98D",
"i c #F0C887",
"p c #F2CB8D",
"a c #F8CF8D",
"s c #F6D08E",
"d c #F9D18F",
"f c #EBC790",
"g c #EECA92",
"h c #F2CD93",
"j c #F2CF98",
"k c #EED195",
"l c #EDD49A",
"z c #F6D195",
"x c #FAD495",
"c c #FCD897",
"v c #F6D29A",
"b c #FAD59B",
"n c #F6D99C",
"m c #FCD99D",
"M c #FDE09F",
"N c #FAD7A0",
"B c #F5DBA2",
"V c #FDDCA3",
"C c #F4DFA9",
"Z c #FDDFA9",
"A c #F4E0A6",
"S c #FEE1A6",
"D c #F7E0AB",
"F c #FEE3AB",
"G c #FEE9AE",
"H c #FEE6B1",
"J c #FEEAB4",
"K c #F7ECBE",
"L c #FFEDBB",
"P c #FFF0B6",
"I c #FFF1BF",
"U c #F6EEC5",
"Y c #FFF4C4",
"T c #FFF7CA",
"R c #FFF9CC",
/* pixels */
"hcmmmVSVSGFFZVFFJLGSSSScccxbVVVxtwpbFLJJUJLUYLFFvhmSJJHHDDCGFZVz",
"uhpppzmcbmVVVZSSGJGSVmSmcmbcVVxj00tcFZZVZHJHLJSVVVFJJJHKLJHHJHZx",
"0tuwwhbxxvbbxbbGJGGFVmVSSVVmVbNh4:0hNNjNZHHHHLZxVmFLLJHZHHZVFHZV",
"1tt5whhhbbvvhhhbLJJFVmmmFZZVFFZv020hvNNNZZHZZZVpbmVSHFZFZZVzNFZZ",
"9ufwiuuhbvvvvuwuHHGGVmxNVFZVZFFN0wzvvZZNVNZZNNxwhVVSVVNVFVVNbVVV",
"9tpwhhfhvbvvhuqrFFFZVmxbVVZVVFJl0txvjNZNNbNNvvh5uVVSVVmNVVVVFVVF",
"0tgthxjbVNvuut00GGFZVcxxmNVbbVFk4tvhvNNNNvNNbjh0uSSFVVbmVVVVFFVG",
"9tgphzhmVbvuut0qDHVVVNbmbmVmVVFv:0gghNNNbjbbjhp0umMVVVVmbmVSVVZG",
"1wphphhvvVxfut0wZFVmVmbmVNVVVVFV0thghvNNNbhjhpt5iccVVVVmxNVVVSSH",
"9qthhuvbNNjrrw0tFHJVVVmbmVFVVSFA0hjzjvNNjvhhhhw4icmVVVVmcmNVZVSG",
"tquuhhvbvvhrqw0uFJJZVSVbNNVNVZGH0tzjbbVNbjhhhhw2ixmVZFSmbmmNSSSF",
"hupupvbbbbhu0q0uZFFZVZVVVNmVVFGGhpvbVNVVNbxhpi72pxmmVVSmmmmbSSFF",
"zxxvpvbbVVbuq00uVZFFHZZZVNNVFJLJbmmbVVVVVVxhtw75ixcbmVVmcmmcmSSG",
"xmVmzvbVVVmhtwquVVZFHHJJJZZFJLLJVVSVVVVSVVcxpi75pxbxbmVVmxdcmSGG",
"MSFSSVDGFFSVbhthVVFCFJKYLJHHJLJJGFGLGSmmVmcxai77pxmbmcmSScsxmSGJ",
"llvkkgvBCDVSVxhbbVVNNNBCCCGDZCCVvvkADBmVbxphpwe7pxbxvmSSAMssnnnl",
"#;;*;:11910gghhvvvgq0rhgr0gr094=@@&-,29004<4%$%3e544::4<<:###;;;",
";><><<1914999qqvvvht0rugg0ffg000#@&2,,2=&==:%$#2pewt6:qq:;#%::4<",
";00qq0010wt0rtrgvvvuuurffrgjjgut$$,<,=,,=-::::$>xppppqtpw>::46er",
"<0qttrqq0wtrtttgFmvvhjghhgjjjjhw2$202=--=-::3>%:xaphpttue4456wzg",
",10tttrqtu000frkJFNbbxjjjhjjvvhw&:259<,-=-::22$:xdxpppgpu6557exp",
";11wtuuuruf00frvJHNxjjjxhhvNbvxwO:224<<,-:22%%$2xdhptuphe775qpsu",
"=:9quuguufgrrf9lHFbzzjbjhjNNvjhw+:<2<9<,-:22%$#3ccaptphpew77wpzp",
";<0quugufhhffr9fFZmvvbbhhjNVNhhw@$29<<,:-2532$@:mmmhiippw777pzcS",
"10wtttghghhggr99FVbbbbvbbVVVZNbw$22533<=,43552$$xmbppwppw55wsxmG",
"01qtrqtghhhjgt09VmxbxvhxvxZNZZVw$25i05=&-23504:#phxpppep755wsxmF",
"q10tq0qruuugy09<bNbxvszhhjNNZVmu$20002--,4>5w5:#pbzpppew653wpxmV",
"q19rqqturr0rtr<<vxhjvpuuhjjNVVcw:25000,<:,455w<#pxvupuww6437tpmS",
"490qqrttu000rr<,tuqtuuttufgjNbx5$2540040<,2040>#wxprtww7457wwebm",
"qqqqqqrrrq4000<,00>4qq0qrufgjjh5222052,<<=:54>:#4r05wq5337wwuuhx",
"wqq444>901,,;,;=<<::34440u0gjht5,222$#+&=*#%>;@O@;:1>:::35wpuuux",
"ewputyrq001<<,,,<<:%:>>:4400ghw3:200$#XXo+#@%%;@;<;,:%$%::46qttp",
"iwzmmSSFGSmmmmAFGGMnnkguuuhvFmp520axdp000hhzxxmxMSGMmnsskkkszzxx",
"5wpzhxmVSFSmVmmSPGSGGPSFFFZVZmxw50pxbxd00dxNmccdmSSmVVmccSSSmmmc",
":3wpapxzmmSVmmbcASVSGSFVGJHGVVbw50axbbd00hzNmdaaMFSmVVcccmMVmmbx",
"::7ippxhznVmmxzvSMmSSSmVSJLLHFVp:0pdbbhh00pxxhppSSVSVVmmmmSmmbbs",
"%35iaiiphbmVvptuGmmSFVmmmZJYLHZv500axdf00uaxzithSSSmmmVVmVSSSmcx",
"%337iiippxbvhuwuSmVSHFmxcVFLLZZh2000ddp00t0dht5fGSmmmVVmVVVSSVmc",
"%%55iiiuphvvhptySVSFHGNmmVZJHHFg=00phz000tpppw20SSSmmmmmmVVSSmmm",
"%%>57wewpzvhhhpfSVVVHZmmNZZZZFFh=<0phx0httttiw:<GSSmmcxmmmmSSmcc",
">%377iiipbvuuuwtmmmVSVbmNZZZHHLV400uzi0uaaf0pu4:VSVNNxxcmmmVVmmm",
":3577iiihxvtrt0rSMVmVVbbVHHHJLLF000uhip0fzhauu02nmmNVbbVmVVmSMMM",
"5377iwpppbvuq00rSmVmVVxxNZHJLLUJ00upppttgbjha004nmxxmmxNVVVmSSSM",
"77wiiwuppzvght10SSVVVVahZHZJLLLJj0pahphhzbbddi03xmxcmbxmmSVVSSSS",
"i0pihithssxbbhq1bFVmZVcxVHHJLLLHxhzvazjxbbxhht44dmcmVFVmVSAmMFGG",
"aazzhptadxVmbbu>nSVmVVccVJJLLULJhhbmmbxmNNmvz044sdxcmFSSSSSSSGGP",
"mcmmvjzxxxmVASbqnSSmmmccDLLYYRTUNmmmmmbVZZZmvf00iadcmVZFGGGFGJPP",
"010phjxxxsxmmVmpmVmmcxxpNHJKKUUUZVNxzxxbZZCVbf00widcVVFFFGSSnnly",
"...o*&$;::>40q5whuq66>:;qtff008-==,:::0000t008-0505i0ufurtw010<$",
"@O@&-=$$$:44qw40zpw3>>;:4tfjjjg8.o@&-$4000004<=-00w000tr00000005",
"OO@=*:22:%34qqw0dpwq44>40tgljNbh@*-==:40gf0h00-&0tpiwpghfrrruw05",
"O.X@&:432:4440wqzxi7ww0wugjvjNNN<;<,:20tfjgpu0:-0tahghjjhhhfhhw3",
"O.o&&,54>>54:>40pdpwwiwhhjjjNNNN<<9000tfgjjgtt:=0gzxzjNvjvvhhvt5",
"&O+&=2w0>4wq0114xxappphzhvNbNZNj9<1qt0wpgjjgtt0<gjxxvbVNNxvvbxhi",
"##O&-4ww45wq0q9<xxahahvjvhvNNNNb<<0q000ffjjjggr0vbxbbbNNNbvxNmxa",
"#@@*<00iq4wq5q0<pxazxxxhhhjNZZZN110000tfggjjhgrfjbjbbNNNNvvxVmba",
"$:==>6q74554001<uxszxvhhghvNZZFV910r00ggjgjjf908gvhzbNNNNbjbNVVc",
"=;<;<66q4>414>;;espvhxvhhhNNNNZF910trtghjjjjjf08gvzhbNNNjbbbNVmV",
"::>;:>>04>44>4<;uzzvvhhpuhNNNbbVr1qtffhjjjjjjf09tghvjNNNNbbNNmmm",
"0:40>4664>1><4:=wpzxzhpuugjNNvjNq1qrtgjhljfjgf000fhjjbNNNjNbNbvm",
"w1qqq7q661:;;##O1wyghgturhhvVVNbw1q0rfftgjffg00400fgjjjjNNNNNbbb",
"t445467664:@@####1wtttw00tgjvNNxw4r0rrrrff0f00,:0000gjgjNbvbNbvj",
"q4:<:>>>q1:;@+@+O#<<1<1<<40thhvh0<40ff090f9008&+==000ff0ghhvvjhh",
"w4;:%@@;4q11q09q09qryr1<=$=0rugh5:;90f09y8f008X..X=:0000000tghhh"
};
