/* XPM */
static char *aa[] = {
/* columns rows colors chars-per-pixel */
"64 64 3 1 ",
"  c gray16",
". c #2A2A2A",
"X c None",
/* pixels */
"XXXXXXXXXXXXXXXXXXXXXXXXXXXXXXXXXXXXXXXXXXXXXXXXXXXXXXXXXXXXXXXX",
"XXXXXXXXXXXXXXXXXXXXXXXXXXXXXXXXXXXXXXXXXXXXXXXXXXXXXXXXXXXXXXXX",
"XXXXXXXXXXXXXXXXXXXXXXXXXXXXXXXXXXXXXXXXXXXXXXXXXXXXXXXXXXXXXXXX",
"XXXXXXXXXXXXXXXXXXXXXXXXXXXXXXX..XXXXXXXXXXXXXXXXXXXXXXXXXXXXXXX",
"XXXXXXXXXXXXXXXXXXXXXXXXXXXXX.....XXXXXXXXXXXXXXXXXXXXXXXXXXXXXX",
"XXXXXXXXXXXXXXXXXXXXXXXXXXXX........XXXXXXXXXXXXXXXXXXXXXXXXXXXX",
"XXXXXXXXXXXXXXXXXXXXXXXXXXX...XXX.....XXXXXXXXXXXXXXXXXXXXXXXXXX",
"XXXXXXXXXXXXXXXXXXXXXXXXX...XXXXXXX....XXXXXXXXXXXXXXXXXXXXXXXXX",
"XXXXXXXXXXXXXXXXXXXXXXXX...XXXXXXXXX....XXXXXXXXXXXXXXXXXXXXXXXX",
"XXXXXXXXXXXXXXXXXXXXXX...XXXXXXXXXXXXX...XXXXXXXXXXXXXXXXXXXXXXX",
"XXXXXXXXXXXXXXXXXXXX....XXXXXXXXXXXXXXX....XXXXXXXXXXXXXXXXXXXXX",
"XXXXXXXXXXXXXXXXX.....XXXXXXXXXXXXXXXXXXX.....XXXXXXXXXXXXXXXXXX",
"XXXXXXXXXXXXX.......XXXXXXXXXXXXXXXXXXXXXXX......XXXXXXXXXXXXXXX",
"XXXXXXXXXXX......XXXXXXXXXXXXX....XXXXXXXXXXXX......XXXXXXXXXXXX",
"XXXXXXXXX.....XXXXXXXXXXXXXXX.XXXX..XXXXXXXXXXXXX.....XXXXXXXXXX",
"XXXXXXX.....XXXXXXXXXXXXXXX..XXXXXX..XXXXXXXXXXXXXX......XXXXXXX",
"XXXXXXX...XXXXXXXXXXXXXXX..XXXXXXXXX...XXXXXXXXXXXXXXX...XXXXXXX",
"XXXXXXX..XXXXXXXXXXXXXX..XXXXXXXXXXXXX..XXXXXXXXXXXXXXX..XXXXXXX",
"XXXXXXX..XXXXXXXXXXXXX..XXXXXXXXXXXXXXXX..XXXXXXXXXXXXX..XXXXXXX",
"XXXXXXX..XXXXXXXXXXX..XXXXXXXXXXXXXXXXXXXX...XXXXXXXXXX..XXXXXXX",
"XXXXXXX..XXXXXXXX...XXXXXXXXXXXXXXXXXXXXXXXX...XXXXXXXX..XXXXXXX",
"XXXXXXX..XXXXXXX..XXXXXXXXXXXXXXXXXXXXXXXXXXXX..XXXXXXX..XXXXXXX",
"XXXXXXX..XXXXXXX.XXXXXXXXXXXXXXXXXXXXXXXXXXXXXX.XXXXXXX..XXXXXXX",
"XXXXXXX.XXXXXXXX.XXXXXXXXXXXXXXXXXXXXXXXXXXXXXX.XXXXXXX..XXXXXXX",
"XXXXXXX.XXXXXXXX.XXXXXXXXXXXXXXXXXXXXXXXXXXXXXX.XXXXXXX..XXXXXXX",
"XXXXXXX.XXXXXXXX.XXXXXXXXXXXXXXXXXXXXXXXXXXXXXX.XXXXXXX..XXXXXXX",
"XXXXXXX..XXXXXXX.XXXXXXXXXXXXXXXXXXXXXXXXXXXXXX.XXXXXXX..XXXXXXX",
"XXXXXXX..XXXXXXX.XXXXXXXXXXXXXXXXXXXXXXXXXXXXXX.XXXXXXX..XXXXXXX",
"XXXXXXX..XXXXXXX.XXXXXXXXXXXXXXXXXXXXXXXXXXXXXX.XXXXXXX.XXXXXXXX",
"XXXXXXX..XXXXXXX.XXXXXXXXXXXXXXXXXXXXXXXXXXXXXX.XXXXXXX.XXXXXXXX",
"XXXXXXXX..XXXXXXXXXXXXXXXXXXXXXXXXXXXXXXXXXXXX.XXXXXXX..XXXXXXXX",
"XXXXXXXX..XXXXXXX.XXXXXXXXXXXXXXXXXXXXXXXXXXXX.XXXXXXX..XXXXXXXX",
"XXXXXXXX..XXXXXXX.XXXXXXXXXXXXXXXXXXXXXXXXXXXX.XXXXXXX..XXXXXXXX",
"XXXXXXXXX..XXXXXX.XXXXXXXXXXXXXXXXXXXXXXXXXXXX.XXXXXXX..XXXXXXXX",
"XXXXXXXXX..XXXXXX.XXXXXXXXXXXXXXXXXXXXXXXXXXXXXXXXXXX..XXXXXXXXX",
"XXXXXXXXX..XXXXXXX.XXXXXXXXXXXXXXXXXXXXXXXXXX.XXXXXX...XXXXXXXXX",
"XXXXXXXXX..XXXXXXX.XXXXXXXXXXXXXXXXXXXXXXXXXX.XXXXXX..XXXXXXXXXX",
"XXXXXXXXXX..XXXXXX.XXXXXXXXXXXXXXXXXXXXXXXXX.XXXXXXX..XXXXXXXXXX",
"XXXXXXXXXX..XXXXXXX.XXXXXXXXXXXXXXXXXXXXXXXX.XXXXXX...XXXXXXXXXX",
"XXXXXXXXXX...XXXXXX.XXXXXXXXXXXXXXXXXXXXXXXX.XXXXXX..XXXXXXXXXXX",
"XXXXXXXXXXX..XXXXXXX.XXXXXXXXXXXXXXXXXXXXXX.XXXXXXX..XXXXXXXXXXX",
"XXXXXXXXXXX...XXXXXXXXXXXXXXXXXXXXXXXXXXXX..XXXXXXX..XXXXXXXXXXX",
"XXXXXXXXXXXX..XXXXXXX.XXXXXXXXXXXXXXXXXXXX.XXXXXXX...XXXXXXXXXXX",
"XXXXXXXXXXXXX..XXXXXX.XXXXXXXXXXXXXXXXXXX.XXXXXXXX..XXXXXXXXXXXX",
"XXXXXXXXXXXXX..XXXXXXX..XXXXXXXXXXXXXXXX.XXXXXXXX..XXXXXXXXXXXXX",
"XXXXXXXXXXXXXX. XXXXXXX.XXXXXXXXXXXXXXX..XXXXXXX...XXXXXXXXXXXXX",
"XXXXXXXXXXXXXX..XXXXXXXX.XXXXXXXXXXXXX..XXXXXXX...XXXXXXXXXXXXXX",
"XXXXXXXXXXXXXX...XXXXXXXX..XXXXXXXXXX..XXXXXXX...XXXXXXXXXXXXXXX",
"XXXXXXXXXXXXXXX...XXXXXXXX..XXXXXXXX.XXXXXXXXX..XXXXXXXXXXXXXXXX",
"XXXXXXXXXXXXXXXX....XXXXXXXX..XXXXX.XXXXXXXXX..XXXXXXXXXXXXXXXXX",
"XXXXXXXXXXXXXXXXXX...XXXXXXXXX.....XXXXXXXXX...XXXXXXXXXXXXXXXXX",
"XXXXXXXXXXXXXXXXXXX..XXXXXXXXXX.XXXXXXXXXXX...XXXXXXXXXXXXXXXXXX",
"XXXXXXXXXXXXXXXXXXXX..XXXXXXXXXXXXXXXXXXXX...XXXXXXXXXXXXXXXXXXX",
"XXXXXXXXXXXXXXXXXXXXX..XXXXXXXXXXXXXXXXXX...XXXXXXXXXXXXXXXXXXXX",
"XXXXXXXXXXXXXXXXXXXXX...XXXXXXXXXXXXXXXX...XXXXXXXXXXXXXXXXXXXXX",
"XXXXXXXXXXXXXXXXXXXXXX...XXXXXXXXXXXXX...XXXXXXXXXXXXXXXXXXXXXXX",
"XXXXXXXXXXXXXXXXXXXXXXX....XXXXXXXXXX...XXXXXXXXXXXXXXXXXXXXXXXX",
"XXXXXXXXXXXXXXXXXXXXXXXXX...XXXXXXX...XXXXXXXXXXXXXXXXXXXXXXXXXX",
"XXXXXXXXXXXXXXXXXXXXXXXXXX....XXX....XXXXXXXXXXXXXXXXXXXXXXXXXXX",
"XXXXXXXXXXXXXXXXXXXXXXXXXXX........XXXXXXXXXXXXXXXXXXXXXXXXXXXXX",
"XXXXXXXXXXXXXXXXXXXXXXXXXXXXXX....XXXXXXXXXXXXXXXXXXXXXXXXXXXXXX",
"XXXXXXXXXXXXXXXXXXXXXXXXXXXXXXXXXXXXXXXXXXXXXXXXXXXXXXXXXXXXXXXX",
"XXXXXXXXXXXXXXXXXXXXXXXXXXXXXXXXXXXXXXXXXXXXXXXXXXXXXXXXXXXXXXXX",
"XXXXXXXXXXXXXXXXXXXXXXXXXXXXXXXXXXXXXXXXXXXXXXXXXXXXXXXXXXXXXXXX"
};
