/* XPM */
static char *exit[] = {
/* columns rows colors chars-per-pixel */
"64 64 3 1 ",
"  c gray16",
". c #2A2A2A",
"X c None",
/* pixels */
"XXXXXXXXXXXXXXXXXXXXXXXXXXXXXXXXXXXXXXXXXXXXXXXXXXXXXXXXXXXXXXXX",
"XXXXXXXXXXXXXXXXXXXXXXXXXXXXXXXXXXXXXXXXXXXXXXXXXXXXXXXXXXXXXXXX",
"XXXXXXXXXXXXXXXXXXXXXXXXXXXXXXXXXXXXXXXXXXXXXXXXXXXXXXXXXXXXXXXX",
"XXXXXXXXXXXXXXXXXXXXXXXXXXXXXXX..XXXXXXXXXXXXXXXXXXXXXXXXXXXXXXX",
"XXXXXXXXXXXXXXXXXXXXXXXXXXXXXX...XXXXXXXXXXXXXXXXXXXXXXXXXXXXXXX",
"XXXXXXXXXXXXXXXXXXXXXXXXXXXXXX...XXXXXXXXXXXXXXXXXXXXXXXXXXXXXXX",
"XXXXXXXXXXXXXXXXXXXXXXXXXXXXXX...XXXXXXXXXXXXXXXXXXXXXXXXXXXXXXX",
"XXXXXXXXXXXXXXXXXXXXXXXXXXXXXX...XXXXXXXXXXXXXXXXXXXXXXXXXXXXXXX",
"XXXXXXXXXXXXXXXXXXXXXXXXXXXXXX ...XXXXXXXXXXXXXXXXXXXXXXXXXXXXXX",
"XXXXXXXXXXXXXXXXXXXXXXXXXXXXXX ...XXXXXXXXXXXXXXXXXXXXXXXXXXXXXX",
"XXXXXXXXXXXXXXXXXXXXXXXXXXXXXX....XXXXXXXXXXXXXXXXXXXXXXXXXXXXXX",
"XXXXXXXXXXXXXXXXXXXXXXXXXXXXX......XXXXXXXXXXXXXXXXXXXXXXXXXXXXX",
"XXXXXXXXXXXXXXXXXXXXXXXXXX..............XXXXXXXXXXXXXXXXXXXXXXXX",
"XXXXXXXXXXXXXXXXXXXXXXXXX.......X.XX.....XXXXXXXXXXXXXXXXXXXXXXX",
"XXXXXXXXXXXXXXXXXXXXXX....XXXX. X..XXXX....XXXXXXXXXXXXXXXXXXXXX",
"XXXXXXXXXXXXXXXXXXXX.....XXXX   X..XXXXXX...XXXXXXXXXXXXXXXXXXXX",
"XXXXXXXXXXXXXXXXXX....XXXX..... X....XXXXX...XXXXXXXXXXXXXXXXXXX",
"XXXXXXXXXXXXXXXXX...XXXX..XXX...X..XXX..XXX...XXXXXXXXXXXXXXXXXX",
"XXXXXXXXXXXXXXXX...XXX..XXXXX...X..XXXXX.XXX...XXXXXXXXXXXXXXXXX",
"XXXXXXXXXXXXXXX...XXX..XXXXXX...XX..XXXXX..XX...XXXXXXXXXXXXXXXX",
"XXXXXXXXXXXXXX...XXX.XXXXXXXX...XX..XXXXXXX.XX...XXXXXXXXXXXXXXX",
"XXXXXXXXXXXXXX..XXX.XXXXXXXX..XXXX..XXXXXXXX.XX...XXXXXXXXXXXXXX",
"XXXXXXXXXXXXXX..XXX.XXXXXXXX..XXXX..XXXXXXXX..XX..XXXXXXXXXXXXXX",
"XXXXXXXXXXXXX..XXX.XXXXXXXX...XX.X..XXXXXXXXX.XXX..XXXXXXXXXXXXX",
"XXXXXXXXXXXXX..XX..XXXXXXXX..XXX.XX..XXXXXXXXX.XX..XXXXXXXXXXXXX",
"XXXXXXXXXXXX...XX.XXXXXXXXX..XXX.XX..XXXXXXXXX.XX...XXXXXXXXXXXX",
"XXXXXXXXXXXX..XXX.XXXXXXXXX..XXX.XX..XXXXXXXXX.XXX..XXXXXXXXXXXX",
"XXXXXXXXXXX..XXX.XXXXXXXXX...XXX.XX..XXXXXXXXXX.XX..XXXXXXXXXXXX",
"XXXXXXXXXXX..XXX.............XXXXXX.....XXXXXXX.XX...XXXXXXXXXXX",
"XXXXXXXXXXX..XX..........XXXXXXXXXXX.............X...XXXXXXXXXXX",
"XXXXXXX..........XXXXXXXXXXXXXXXXXXXXXX...  .........XXXXXXXXXXX",
"XXX..........XXXX......XXXXXXXX..XXXXXXXX  ...XXXXX.........XXXX",
"XXX..........XXXXXXXXX......XXX..XXX......XXXXXXXXX..........XXX",
"XXXXXXX............XXXXXXXXXXXXXXXXXXXXXXXXXXXX............XXXXX",
"XXXXXXXXXX...XX..........XXXXXXXXXXXXXXXXXXX.....X.......XXXXXXX",
"XXXXXXXXXXX..XXX.XX..........XXXXXXX............XX..XXXXXXXXXXXX",
"XXXXXXXXXXX..XXX.XXXXXXXX....XXXXXX.....XXXXXXX.XX..XXXXXXXXXXXX",
"XXXXXXXXXXX..XXX.XXXXXXXXXX..XXX.XX..XXXXXXXXXX.XX..XXXXXXXXXXXX",
"XXXXXXXXXXXX..XXX.XXXXXXXXX..XXX.XXX.XXXXXXXXX.XX...XXXXXXXXXXXX",
"XXXXXXXXXXXX..XXX..XXXXXXXXX..XX.XX..XXXXXXXX..XX..XXXXXXXXXXXXX",
"XXXXXXXXXXXX...XXX.XXXXXXXXX..XX.XX..XXXXXXXX.XXX..XXXXXXXXXXXXX",
"XXXXXXXXXXXXX...XXX.XXXXXXXX..XXXX..XXXXXXXX..XX...XXXXXXXXXXXXX",
"XXXXXXXXXXXXXX...XX.XXXXXXXX..X.XX..XXXXXXX..XXX..XXXXXXXXXXXXXX",
"XXXXXXXXXXXXXXX...XX.XXXXXXXX.X.XX..XXXXXX..XXX..XXXXXXXXXXXXXXX",
"XXXXXXXXXXXXXXXX..XXX.XXXXXXX.X XX.XXXXXX..XXX...XXXXXXXXXXXXXXX",
"XXXXXXXXXXXXXXXX...XXX..XXXXX.. X..XXXXX..XXX...XXXXXXXXXXXXXXXX",
"XXXXXXXXXXXXXXXXX..XXXXX..XXX.  X..XXX..XXXX...XXXXXXXXXXXXXXXXX",
"XXXXXXXXXXXXXXXXXX...XXXXX..... X.....XXXX...XXXXXXXXXXXXXXXXXXX",
"XXXXXXXXXXXXXXXXXXX...XXXXXXX.. X..XXXXXX...XXXXXXXXXXXXXXXXXXXX",
"XXXXXXXXXXXXXXXXXXXX....XXXXXX..X.XXXXXX...XXXXXXXXXXXXXXXXXXXXX",
"XXXXXXXXXXXXXXXXXXXXX......XXX..X.XX......XXXXXXXXXXXXXXXXXXXXXX",
"XXXXXXXXXXXXXXXXXXXXXXXX................XXXXXXXXXXXXXXXXXXXXXXXX",
"XXXXXXXXXXXXXXXXXXXXXXXXXX...........XXXXXXXXXXXXXXXXXXXXXXXXXXX",
"XXXXXXXXXXXXXXXXXXXXXXXXXXXXXX....XXXXXXXXXXXXXXXXXXXXXXXXXXXXXX",
"XXXXXXXXXXXXXXXXXXXXXXXXXXXXXX....XXXXXXXXXXXXXXXXXXXXXXXXXXXXXX",
"XXXXXXXXXXXXXXXXXXXXXXXXXXXXXX...XXXXXXXXXXXXXXXXXXXXXXXXXXXXXXX",
"XXXXXXXXXXXXXXXXXXXXXXXXXXXXXX...XXXXXXXXXXXXXXXXXXXXXXXXXXXXXXX",
"XXXXXXXXXXXXXXXXXXXXXXXXXXXXXXX..XXXXXXXXXXXXXXXXXXXXXXXXXXXXXXX",
"XXXXXXXXXXXXXXXXXXXXXXXXXXXXXXX..XXXXXXXXXXXXXXXXXXXXXXXXXXXXXXX",
"XXXXXXXXXXXXXXXXXXXXXXXXXXXXXXX..XXXXXXXXXXXXXXXXXXXXXXXXXXXXXXX",
"XXXXXXXXXXXXXXXXXXXXXXXXXXXXXXX..XXXXXXXXXXXXXXXXXXXXXXXXXXXXXXX",
"XXXXXXXXXXXXXXXXXXXXXXXXXXXXXXXXXXXXXXXXXXXXXXXXXXXXXXXXXXXXXXXX",
"XXXXXXXXXXXXXXXXXXXXXXXXXXXXXXXXXXXXXXXXXXXXXXXXXXXXXXXXXXXXXXXX",
"XXXXXXXXXXXXXXXXXXXXXXXXXXXXXXXXXXXXXXXXXXXXXXXXXXXXXXXXXXXXXXXX"
};
