/* XPM */
static char *player[] = {
/* columns rows colors chars-per-pixel */
"64 64 3 1 ",
"  c gray16",
". c #2A2A2A",
"X c None",
/* pixels */
"XXXXXXXXXXXXXXXXXXXXXXXXXXXXXXXXXXXXXXXXXXXXXXXXXXXXXXXXXXXXXXXX",
"XXXXXXXXXXXXXXXXXXXXXXXXXXXXXXXXXXXXXXXXXXXXXXXXXXXXXXXXXXXXXXXX",
"XXXXXXXXXXXXXXXXXXXXXXXXXXXXXXXXXXXXXXXXXXXXXXXXXXXXXXXXXXXXXXXX",
"XXXXXXXXXXXXXXXXXXXXXXXXXXX......XXXXXXXXXXXXXXXXXXXXXXXXXXXXXXX",
"XXXXXXXXXXXXXXXXXXXXXXXXXXX......XXXXXXXXXXXXXXXXXXXXXXXXXXXXXXX",
"XXXXXXXXXXXXXXXXXXXXXXXXXXX..XX...XXXXXXXXXXXXXXXXXXXXXXXXXXXXXX",
"XXXXXXXXXXXXXXXXXXXXXXXXXXX..XXX..XXXXXXXXXXXXXXXXXXXXXXXXXXXXXX",
"XXXXXXXXXXX......XXXXXXXXXX..XXX...XXXXXXXXXXXXXXXXXXXXXXXXXXXXX",
"XXXXXXXXXXX......XXXXXXXXXX..XXX...XXXXXXXXXXXXXXXXXXXXXXXXXXXXX",
"XXXXXXXXXXX..XXX..XXXXXXXXX..XXX....XXXXXXXXXXXXXXXXXXXXXXXXXXXX",
"XXXXXXXXXXX..XXX...XXXXXXXX..XXXXX..XXXXXXXXXXXXXXXXXXXXXXXXXXXX",
"XXXXXXXXXXX..XXX....XXXXXXX..XX.XX..XXXXXXX......XXXXXXXXXXXXXXX",
"XXXXXXXXXXX..XXXXX..XXXXXXX..XX.XX..XXXXXXX......XXXXXXXXXXXXXXX",
"XXXXXXXXXXX. XXXXX...XXXXXX..XX.XXX..XXXXXX..XXX..XXXXXXXXXXXXXX",
"XXXXXXXXXXX..XXXXXX..XXXXXX..XXXXXX..XXXXXX.XXXX..XXXXXXXXXXXXXX",
"XXXXXXXXXXX..XXX.XX..XXXXXX..XXXXXX..XXXXX..XXX.X..XXXXXXXXXXXXX",
"XXXXXXXXXXX..XXX.XX..XXXXXX..XXXXXX..XXXXX..XXX.XX..XXXXXXXXXXXX",
"XXXXXXXXXXX..XXX.XX..XXXXXX..XXXXXX..XXXXX..XXXXXX..XXXXXXXXXXXX",
"XXXXXXXXXXX .XXX.XX..XXXXXX..XXXXXX..XXXXXX.XXXXXX..XXXXXXXXXXXX",
"XXXXXXXXXXX..XXX.XX..XXXXXX..XX.XXX..XXXXXX..XXXXXX..XXXXXXXXXXX",
"XXXXXXXXXXX..XXX.XX..XXXXXX..XXXXXX..XXXXXX..XXXXXX..XXXXXXXXXXX",
"XXXXXXXXXXX..XXX.XX..XXXXXX..XXXXXX..XXXXXX..XXXXXX..XXXXXXXXXXX",
"XXXXXXXXXXX..XXX.XX..XXXXXX..XXXXXX..XXXXXX..XXX.XX..XXXXXXXXXXX",
"XXXXXXXXXXX..XXXXXX..XXXXXX..XXXXXX..XXXXXX..XXX.XX..XXXXXXXXXXX",
"XXXXXXXXXXX..XXXXX..XXXXXXX..XXXXXX..XXXXXX..XXXXXX..XXXXXXXXXXX",
"XXXXXXXXXXX..XXXXX..XXXXXXX..XXX.XX..XXXXXX..XXXXX..XXXXXXXXXXXX",
"XXXXXXXXXXX..XXXXX..XXXXXXX..XX.XXX..XXXXXX..XXX.X..XXXXXXXXXXXX",
"XXXXXXXXXXX..XX.....XXXXXXX..XX.XXX..XXXXXX..XXX.X..XXXXXXXXXXXX",
"XXXXXXXXXXX..XX....XXXXXXXX..XX.XXX..XXXXXX..XXXXX..XXXXXXXXXXXX",
"XXXXXXXXXXX..XX..XXXXXXXXXX..XXX.XX..XXXXXX..XXXXX..XXXXXXXXXXXX",
"XXXXXXXXXXX..XX..XXXXXXXXXX..XXX.XX..XXXXXX..XXXXX.XXXXXXXXXXXXX",
"XX...........XX..XXXXXXXXXX..XXX.X..XXXXXXX..XX....XXXXXXXXXXXXX",
"XX...........XX...XXXXXXXXXX.XX.XX..XXXXXXX..XX...XXXXXXXXXXXXXX",
"XXX.XXXXXXXXXXXX...XXXXXXXXX.XX.XX..XXXXXXX..XX..XXXXXXXXXXXXXXX",
"XXX..XXXXXXXXXXXX..XXXXXXXXX.XX.....XXXXXXX..XX..XXXXXXXXXXXXXXX",
"XXX.......XXXXXXXX..XXXXXXXX.XX....XXXXXXXX...X..XXXXXXXXXXXXXXX",
"XXX.. XXXXXXX..XXXX...XXXXX..XX..XXXXXXXXX...................XXX",
"XXX...XXXXXXXXX..XXX...XXXX..XX..XXXXXXXX....X.......... ....XXX",
"XXXX..XXXXXXXXXX..XXXX..XXX..XX..XXXXXXX...XXXXXXXX.XXXXXXX..XXX",
"XXXX...XXXXXXXXXX..XXXX......XX..XXXXX....XXXXXXXXX..........XXX",
"XXXX........XXXXXX.XXXX..................XXXXXXXXXX..........XXX",
"XXXXX..XXXX.XXXXXXX.XXXXXXXXXXXXXXXXXXXXXXXXXXXXXXX..XXXXXXXXXXX",
"XXXXX..XXXXXXXXXXXXX.XXXXXXXXXXXXXXXXXXXXXXXXXXXXXX..XXXXXXXXXXX",
"XXXXX...XX..XXXXXXXXX.XXXXX....XXXXXXXXXXXXXXXXXXXX..XXXXXXXXXXX",
"XXXXX....XXXXXXXXXXXXXXXXXXXXXX.....XXXXXXXX.....X...XXXXXXXXXXX",
"XXXXXX...XXXXXXXXXXXXXXXXXXXXXXXXXXXXXXXXXXXXXXXXX...XXXXXXXXXXX",
"XXXXXXX..XXXXXXXXXXXXXXXXXXXXXXXXXXXXXXXXXXXXXXXXX..XXXXXXXXXXXX",
"XXXXXXXX..XXXXXXXXXXXXXXXXXXXXXXXXXXXXXXXXXXXXXXXX..XXXXXXXXXXXX",
"XXXXXXXX..XXXXXXXXXX....XXXX....XXXX.XX.XXXXXXXXX..XXXXXXXXXXXXX",
"XXXXXXXX...XXXXXXXXX.XXX.XXX.XXXXXXX.XX.XXXXXXXX..XXXXXXXXXXXXXX",
"XXXXXXXXX..XXXXXXXXX.XXXXXXXXXXXXXX.XXX.XXXXXXXX..XXXXXXXXXXXXXX",
"XXXXXXXXX..XXXXXXXXX..X.XXXX.XX.XXXX..X.XXXXXXX...XXXXXXXXXXXXXX",
"XXXXXXXXX..XXXXXXXXXXXXXXXXXXXXXXXXXXXXXXXXXXXX..XXXXXXXXXXXXXXX",
"XXXXXXXXXX..XXXXXXXXXXXXXXXXXXXXXXXXXXXXXXXXXX...XXXXXXXXXXXXXXX",
"XXXXXXXXXX..XXXXXXXXXXXXXXXXXXXXXXXXXXXXXXXXX...XXXXXXXXXXXXXXXX",
"XXXXXXXXXX..XXXXXXXXXXXXXXXXXXXXXXXXXXXXXXXX...XXXXXXXXXXXXXXXXX",
"XXXXXXXXXX..XXXXXXXXXXXXXXXXXXXXXXXXXXXXXXX...XXXXXXXXXXXXXXXXXX",
"XXXXXXXXXX...XXXXXXXXXXXXXXXXXXXXXXXXXXXXX...XXXXXXXXXXXXXXXXXXX",
"XXXXXXXXXXX..XXXXXXXXXXXXXXXXXXXXXXXXXXXX...XXXXXXXXXXXXXXXXXXXX",
"XXXXXXXXXXX................................XXXXXXXXXXXXXXXXXXXXX",
"XXXXXXXXXXX.....XXXXXXXXXXXX.............XXXXXXXXXXXXXXXXXXXXXXX",
"XXXXXXXXXXXXXXXXXXXXXXXXXXXXXXXXXXXXXXXXXXXXXXXXXXXXXXXXXXXXXXXX",
"XXXXXXXXXXXXXXXXXXXXXXXXXXXXXXXXXXXXXXXXXXXXXXXXXXXXXXXXXXXXXXXX",
"XXXXXXXXXXXXXXXXXXXXXXXXXXXXXXXXXXXXXXXXXXXXXXXXXXXXXXXXXXXXXXXX"
};
